<svg width="121" height="59" viewBox="0 0 121 59" fill="none" xmlns="http://www.w3.org/2000/svg">
<path d="M17.1016 58.7C12.2349 58.7 8.30156 57.7 5.30156 55.7C1.76823 53.3667 0.00156274 49.9 0.00156274 45.3C0.00156274 41.6333 0.834896 38 2.50156 34.4C4.16823 30.8 6.3349 27.3667 9.00156 24.1C11.7349 20.8333 14.7016 17.8667 17.9016 15.2C21.1016 12.4667 24.2016 10.1667 27.2016 8.3C36.2682 2.76667 45.1349 -1.66893e-06 53.8016 -1.66893e-06C61.3349 -1.66893e-06 65.1016 2.6 65.1016 7.8C65.1016 12.3333 62.6016 16.5 57.6016 20.3C52.8016 23.9667 48.1016 25.8 43.5016 25.8C38.6349 25.8 36.2016 23.9333 36.2016 20.2C36.2016 17.5333 36.8016 16.2 38.0016 16.2C38.4682 16.2 38.7016 16.5 38.7016 17.1C38.7016 17.1667 38.7016 17.3 38.7016 17.5C38.7016 17.6333 38.6682 17.8 38.6016 18C38.5349 18.2 38.5016 18.3667 38.5016 18.5C38.5016 18.6333 38.5016 18.7667 38.5016 18.9C38.5016 21.5 40.2016 22.8 43.6016 22.8C47.1349 22.8 51.1349 21.1 55.6016 17.7C60.0682 14.3 62.3016 10.9333 62.3016 7.6C62.3016 4.33333 59.5349 2.7 54.0016 2.7C53.4682 2.7 52.9016 2.73333 52.3016 2.8C51.7682 2.8 51.2349 2.83333 50.7016 2.9C44.9016 3.5 38.3682 5.9 31.1016 10.1C28.1682 11.7667 25.1682 13.8 22.1016 16.2C19.1016 18.5333 16.3349 21.1333 13.8016 24C11.2682 26.8667 9.20156 29.9333 7.60156 33.2C6.06823 36.4667 5.30156 39.8667 5.30156 43.4C5.30156 45.2667 5.60156 47.0333 6.20156 48.7C6.86823 50.3667 7.8349 51.7 9.10156 52.7C11.2349 54.4333 14.2016 55.3 18.0016 55.3C30.0682 55.3 41.8016 50.5 53.2016 40.9C53.4682 40.6333 53.7349 40.5 54.0016 40.5C54.4016 40.5 54.6016 40.5 54.6016 40.5C54.6682 40.5 54.7016 40.7333 54.7016 41.2C54.7016 41.5333 54.5682 41.8333 54.3016 42.1C51.7016 44.5 48.9682 46.6333 46.1016 48.5C43.2349 50.3 40.2016 51.9667 37.0016 53.5C29.8016 56.9667 23.1682 58.7 17.1016 58.7ZM55.8375 55.7C53.5042 55.7 52.3375 54.3333 52.3375 51.6C52.3375 47.8 54.0042 43.3333 57.3375 38.2C57.2708 37.8667 57.2042 37.5 57.1375 37.1C57.1375 36.7 57.1375 36.3333 57.1375 36C57.1375 33.6 57.9375 31.2667 59.5375 29C61.1375 26.7333 63.1042 25.6 65.4375 25.6C67.4375 25.6 68.7708 26.3 69.4375 27.7C70.1708 29.1 70.5375 30.6667 70.5375 32.4C70.5375 33.8667 70.3708 35.2667 70.0375 36.6C69.7042 38 69.2042 39.5667 68.5375 41.3C67.8708 43.0333 67.0375 44.8667 66.0375 46.8C67.0375 47.4 68.1708 47.7 69.4375 47.7C70.5708 47.7 71.6375 47.5667 72.6375 47.3C73.6375 46.9667 74.5708 46.3667 75.4375 45.5C76.3042 44.6333 76.9708 43.8667 77.4375 43.2C77.9708 42.5333 78.2042 42.2333 78.1375 42.3C78.2708 42.1667 78.4042 42.1 78.5375 42.1C78.8042 42.1 79.0042 42.2667 79.1375 42.6C79.3375 42.9333 79.3042 43.2667 79.0375 43.6C77.9708 45.1333 76.5708 46.5 74.8375 47.7C73.1708 48.8333 71.3375 49.4 69.3375 49.4C67.8042 49.4 66.4708 49.0667 65.3375 48.4C62.2708 53.2667 59.1042 55.7 55.8375 55.7ZM64.7375 45.9C65.6042 43.7667 66.2708 41.9333 66.7375 40.4C67.2042 38.8667 67.4375 37.4333 67.4375 36.1V35.3C67.4375 33.5 67.1375 31.8333 66.5375 30.3C65.9375 28.7 65.0708 27.9 63.9375 27.9C62.4042 27.9 61.2042 28.8333 60.3375 30.7C59.7375 31.9667 59.4375 33.3667 59.4375 34.9V35.5C60.5042 34.2333 61.5708 33.6 62.6375 33.6C63.6375 33.6 64.3708 33.9333 64.8375 34.6C65.0375 34.8667 65.1375 35.1 65.1375 35.3C65.1375 35.7 64.7375 35.9 63.9375 35.9C62.7375 35.9 61.4708 37.1667 60.1375 39.7C61.0708 42.3 62.6042 44.3667 64.7375 45.9ZM57.4375 53.3C58.3042 53.3 59.5375 52.5 61.1375 50.9C61.8042 50.2333 62.3708 49.6 62.8375 49C63.3042 48.4 63.6708 47.8333 63.9375 47.3C61.6708 45.7667 60.0042 44.0667 58.9375 42.2C56.9375 46.4 55.9375 49.4333 55.9375 51.3C55.9375 52.6333 56.4375 53.3 57.4375 53.3ZM81.5891 55.3C76.5891 55.3 74.0891 52.6333 74.0891 47.3C74.0891 45.5667 74.5891 43.7667 75.5891 41.9C76.5891 40.0333 77.9891 38.1333 79.7891 36.2C83.5224 32.2667 86.9557 30.3 90.0891 30.3C92.2224 30.3 93.2891 31.1333 93.2891 32.8C93.2891 33.4 92.8224 34.5333 91.8891 36.2C90.8891 37.8667 90.0891 38.7 89.4891 38.7C89.2224 38.7 89.0891 38.5333 89.0891 38.2C89.0891 37.9333 89.1891 37.5 89.3891 36.9C89.6557 36.3667 89.7891 35.9 89.7891 35.5C89.7891 34.1 88.9224 33.4 87.1891 33.4C86.4557 33.4 85.5224 33.8 84.3891 34.6C83.2557 35.3333 82.2224 36.4667 81.2891 38C79.5557 40.8667 78.6891 43.5 78.6891 45.9C78.6891 49.9667 80.4224 52 83.8891 52C85.3557 52 86.9557 51.5667 88.6891 50.7C90.4891 49.8333 92.1891 48.7333 93.7891 47.4C95.4557 46 96.7224 44.5667 97.5891 43.1C98.1224 42.3 98.5557 41.9 98.8891 41.9C99.1557 41.9 99.2891 42 99.2891 42.2V42.6C99.2891 42.7333 99.2557 42.9 99.1891 43.1C99.1891 43.3 99.1224 43.4667 98.9891 43.6C97.9891 45.0667 96.7891 46.5667 95.3891 48.1C93.9891 49.5667 92.1224 51.0667 89.7891 52.6C88.5891 53.4 87.2557 54.0333 85.7891 54.5C84.3891 55.0333 82.9891 55.3 81.5891 55.3ZM96.6617 55.7C94.3284 55.7 93.1617 54.3333 93.1617 51.6C93.1617 47.8 94.8284 43.3333 98.1617 38.2C98.0951 37.8667 98.0284 37.5 97.9617 37.1C97.9617 36.7 97.9617 36.3333 97.9617 36C97.9617 33.6 98.7617 31.2667 100.362 29C101.962 26.7333 103.928 25.6 106.262 25.6C108.262 25.6 109.595 26.3 110.262 27.7C110.995 29.1 111.362 30.6667 111.362 32.4C111.362 33.8667 111.195 35.2667 110.862 36.6C110.528 38 110.028 39.5667 109.362 41.3C108.695 43.0333 107.862 44.8667 106.862 46.8C107.862 47.4 108.995 47.7 110.262 47.7C111.395 47.7 112.462 47.5667 113.462 47.3C114.462 46.9667 115.395 46.3667 116.262 45.5C117.128 44.6333 117.795 43.8667 118.262 43.2C118.795 42.5333 119.028 42.2333 118.962 42.3C119.095 42.1667 119.228 42.1 119.362 42.1C119.628 42.1 119.828 42.2667 119.962 42.6C120.162 42.9333 120.128 43.2667 119.862 43.6C118.795 45.1333 117.395 46.5 115.662 47.7C113.995 48.8333 112.162 49.4 110.162 49.4C108.628 49.4 107.295 49.0667 106.162 48.4C103.095 53.2667 99.9284 55.7 96.6617 55.7ZM105.562 45.9C106.428 43.7667 107.095 41.9333 107.562 40.4C108.028 38.8667 108.262 37.4333 108.262 36.1V35.3C108.262 33.5 107.962 31.8333 107.362 30.3C106.762 28.7 105.895 27.9 104.762 27.9C103.228 27.9 102.028 28.8333 101.162 30.7C100.562 31.9667 100.262 33.3667 100.262 34.9V35.5C101.328 34.2333 102.395 33.6 103.462 33.6C104.462 33.6 105.195 33.9333 105.662 34.6C105.862 34.8667 105.962 35.1 105.962 35.3C105.962 35.7 105.562 35.9 104.762 35.9C103.562 35.9 102.295 37.1667 100.962 39.7C101.895 42.3 103.428 44.3667 105.562 45.9ZM98.2617 53.3C99.1284 53.3 100.362 52.5 101.962 50.9C102.628 50.2333 103.195 49.6 103.662 49C104.128 48.4 104.495 47.8333 104.762 47.3C102.495 45.7667 100.828 44.0667 99.7617 42.2C97.7617 46.4 96.7617 49.4333 96.7617 51.3C96.7617 52.6333 97.2617 53.3 98.2617 53.3Z" fill="#E0C585"/>
</svg>
