<svg xmlns="http://www.w3.org/2000/svg" viewBox="0 0 354.82 164.9"><defs><style>.cls-1{fill:none;stroke:#edd98f;stroke-miterlimit:10;stroke-width:6px;}</style></defs><g id="Calque_2" data-name="Calque 2"><g id="Calque_1-2" data-name="Calque 1"><path class="cls-1" d="M169.86,28.2c-5.65,5.91-8,12.43-5.89,15.77,3.28,5.11,16,1.05,17.89.47,16.1-5.12,30.59-21.82,26.82-31.77-1.66-4.37-6.66-7-7.77-7.53C196.53,2.88,192.17,3,187.27,3a55.83,55.83,0,0,0-7.54.68c-17.4,3-126.41,48.87-158.17,91.82-.92,1.24-1.74,2.43-1.82,2.56C11.67,109.9-2.06,130,4.91,144.67,14.1,164,54.19,163.19,71.74,160.44c10.47-1.64,25.39-5.94,26.82-6.35,2.56-.75,12.17-3.57,26.59-9.18,18-7,28.63-12.57,44-20.71,13-6.87,21.43-12,24-21.41a22.29,22.29,0,0,0,.71-7.29"/><path class="cls-1" d="M209.09,98.43c2,1.07,9.31,5,11.82,12.83,4.46,13.9-9.22,30.41-22.47,37.53-14.36,7.72-37.64,9.45-45.29-2.47-7.82-12.18,4.08-33.37,18.12-43.06C172.42,102.47,192.09,89.32,209.09,98.43Z"/><path class="cls-1" d="M277.09,107.73c.69-.19,9.51-2.72,9.71-7.23a5,5,0,0,0-1.41-3.36c-5.34-5.23-25.16,4.79-37.65,13.89-12.75,9.28-17.46,17.29-18.83,19.76-2,3.65-8.75,15.8-4,21.59,2.33,2.87,6.53,3,11.11,3.18a39.76,39.76,0,0,0,20.47-5.12"/><path class="cls-1" d="M312,99.26c9.1-3.27,27.37-6.19,35.83,4.59s1,27,.05,29.08c-6.55,14-21.32,21.08-34.11,21.92-9.29.61-26.66-1.46-31.59-12.35C275.81,128.37,293,106.11,312,99.26Z"/></g></g></svg>