<svg width="32" height="32" viewBox="0 0 32 32" fill="none" xmlns="http://www.w3.org/2000/svg">
<rect width="32" height="32" fill="#1E3E2E"/>
<path d="M9.8 27.68C7.85333 27.68 6.28 27.28 5.08 26.48C3.66667 25.5467 2.96 24.16 2.96 22.32C2.96 20.8533 3.29333 19.4 3.96 17.96C4.62667 16.52 5.49333 15.1467 6.56 13.84C7.65333 12.5333 8.84 11.3467 10.12 10.28C11.4 9.18667 12.64 8.26667 13.84 7.52C17.4667 5.30667 21.0133 4.2 24.48 4.2C27.4933 4.2 29 5.24 29 7.32C29 9.13333 28 10.8 26 12.32C24.08 13.7867 22.2 14.52 20.36 14.52C18.4133 14.52 17.44 13.7733 17.44 12.28C17.44 11.2133 17.68 10.68 18.16 10.68C18.3467 10.68 18.44 10.8 18.44 11.04C18.44 11.0667 18.44 11.12 18.44 11.2C18.44 11.2533 18.4267 11.32 18.4 11.4C18.3733 11.48 18.36 11.5467 18.36 11.6C18.36 11.6533 18.36 11.7067 18.36 11.76C18.36 12.8 19.04 13.32 20.4 13.32C21.8133 13.32 23.4133 12.64 25.2 11.28C26.9867 9.92 27.88 8.57333 27.88 7.24C27.88 5.93333 26.7733 5.28 24.56 5.28C24.3467 5.28 24.12 5.29333 23.88 5.32C23.6667 5.32 23.4533 5.33333 23.24 5.36C20.92 5.6 18.3067 6.56 15.4 8.24C14.2267 8.90667 13.0267 9.72 11.8 10.68C10.6 11.6133 9.49333 12.6533 8.48 13.8C7.46667 14.9467 6.64 16.1733 6 17.48C5.38667 18.7867 5.08 20.1467 5.08 21.56C5.08 22.3067 5.2 23.0133 5.44 23.68C5.70667 24.3467 6.09333 24.88 6.6 25.28C7.45333 25.9733 8.64 26.32 10.16 26.32C14.9867 26.32 19.68 24.4 24.24 20.56C24.3467 20.4533 24.4533 20.4 24.56 20.4C24.72 20.4 24.8 20.4 24.8 20.4C24.8267 20.4 24.84 20.4933 24.84 20.68C24.84 20.8133 24.7867 20.9333 24.68 21.04C23.64 22 22.5467 22.8533 21.4 23.6C20.2533 24.32 19.04 24.9867 17.76 25.6C14.88 26.9867 12.2267 27.68 9.8 27.68Z" fill="#EDD98F" fill-opacity="0.5"/>
</svg>
